<svg width="66.000000" height="64.000000" viewBox="0 0 66 64" fill="none" xmlns="http://www.w3.org/2000/svg" xmlns:xlink="http://www.w3.org/1999/xlink">
	<desc>
			Created with Pixso.
	</desc>
	<defs/>
	<path id="Logotype" d="M59.2 22.37C59.63 22.58 61 22.85 62.11 24.58C64.74 25.58 66 28.01 66 30.16C66 31.12 65.75 32.02 65.26 32.72C63.98 34.56 61.26 34.81 57.44 34.95C54.75 36.75 51.83 37.55 49.76 37.91C48.66 40.79 45.26 40.76 40.31 40.71C39.68 40.71 39.03 40.7 38.35 40.7C36.47 40.7 34.78 40.41 33.29 39.87C29.67 39.87 19.52 39.87 16.85 39.87C15.32 40.51 13.47 40.8 11.36 40.72C2.23 40.38 0.23 31.69 0.23 26.38C0.23 26.07 0.23 25.77 0.25 25.49C0.35 23.23 0.82 21.59 1.47 20.39C1.49 18.4 1.79 16.45 2.37 14.58C0.95 14.11 0 12.48 0 10.78C0 9.48 0.56 8.14 1.9 7.26C3.72 6.06 5.18 6.74 6.13 7.61C10.17 2.68 16.05 0 22.26 0C27.78 0 33.07 2.23 36.93 6.07C39.12 4.55 41.24 5.3 42.04 7.34C42.38 7.3 42.73 7.28 43.07 7.27C43.85 5.98 45.08 4.8 47.24 4.63C50.34 4.4 51.76 6.67 51.76 8.69C51.76 8.97 51.73 9.25 51.68 9.52C56.04 12.16 59.05 16.88 59.2 22.37ZM57.92 33.05C59.02 32.27 60.99 30.65 61.57 28.31C61.64 28.04 61.67 27.76 61.67 27.47C61.67 25.91 60.72 24.23 59.23 23.72C58.94 23.62 58.7 23.51 58.49 23.4C57.19 22.87 56.31 22.41 56.22 21.18C56.22 21.09 56.21 21 56.21 20.92C56.21 20.25 56.4 19.71 56.57 19.2C56.73 18.74 56.88 18.3 56.88 17.8C56.88 17.58 56.85 17.34 56.77 17.09C54.39 11.66 48.69 7.99 42.3 8.56C42.3 8.6 42.3 8.63 42.3 8.67C42.3 9.36 42.08 10 41.61 10.45C39.61 12.35 40.23 11.75 39.07 13.68C38.08 15.32 34.91 15.06 34.89 11.43L34.89 11.41C34.89 11.33 34.89 11.24 34.89 11.16C34.89 9.95 34.96 8.24 36.02 6.92C32.4 3.32 27.43 1.24 22.26 1.24C11.87 1.24 3.78 9.11 2.81 18.62C6.41 15.24 11.71 17.2 12.83 21.88C13.04 22.79 13.58 24.72 14.19 26.73C16.11 26.14 18.77 25.9 20.52 28.17C21.37 29.27 21.86 30.81 21.86 32.43C21.86 34.61 20.98 36.95 18.93 38.63C21.79 38.63 27.13 38.63 30.75 38.63C26.4 35.83 24.2 30.49 23.78 24.41C23.76 24.13 23.75 23.85 23.75 23.57C23.75 19.9 25.3 15.52 27.75 16C29.49 16.34 29.31 18.36 29.83 21.58C30.6 26.28 34.26 29.16 36.86 29.57C40.3 30.11 41.68 29.66 44.92 30.24C48.41 30.86 50.06 33.7 50.06 36.17C50.06 36.31 50.05 36.44 50.04 36.58C52.28 36.14 55.2 34.98 57.92 33.05ZM54.4 21.92C54.4 22.67 54.04 23.36 53.28 23.9C50.4 25.9 51.18 27.65 49.22 28.46C45.66 29.94 43.36 27.05 43.36 24.04C43.36 23.42 43.46 22.79 43.67 22.2C44.25 20.53 45.61 18.34 48.8 17.94C51.26 17.63 53.4 19.06 54.14 20.76C54.31 21.16 54.4 21.55 54.4 21.92ZM56.98 27.09C56.98 26.89 57.04 26.7 57.16 26.53C57.88 25.53 59.62 25.46 59.62 25.46C60.48 25.46 60.82 25.95 60.82 26.61C60.82 27.31 60.44 28.21 59.86 28.94C59.09 29.92 56.98 28.33 56.98 27.09ZM10.69 38.62C11.63 39.9 13.86 39.91 16.57 38.54C18.89 37.36 20.27 35.31 20.27 33.54C20.27 32.79 20.03 32.1 19.51 31.54C18.64 30.62 16.82 30.28 14.16 31.77C11.69 33.15 10.24 35.37 10.24 37.13C10.24 37.68 10.39 38.19 10.69 38.62ZM47.13 45.04L48.59 45.04C48.98 45.04 49.33 45.19 49.61 45.49C49.9 45.79 50.04 46.13 50.04 46.5L50.04 54.84C50.04 56.87 49.45 58.23 48.29 58.95C47.12 59.66 45.85 60.02 44.48 60.02C43.74 60.02 43.02 59.89 42.31 59.65C41.59 59.41 41.02 59.02 40.6 58.48C39.77 57.42 39.36 55.98 39.36 54.16C39.36 52.36 39.77 50.92 40.6 49.83C41.45 48.72 42.55 48.17 43.89 48.17C44.6 48.17 45.22 48.31 45.77 48.59C46.34 48.94 46.79 49.38 47.13 49.92L47.13 45.04ZM7.78 62.54C7.78 62.94 7.64 63.28 7.36 63.57C7.07 63.85 6.73 64 6.33 64L4.88 64L4.88 53.34C4.88 51.35 5.46 49.98 6.63 49.26C7.8 48.53 9.07 48.17 10.43 48.17C11.14 48.17 11.86 48.3 12.59 48.57C13.32 48.84 13.89 49.24 14.32 49.75C15.18 50.86 15.6 52.29 15.6 54.03C15.6 55.82 15.18 57.28 14.32 58.39C13.47 59.47 12.37 60.02 11.03 60.02C10.32 60.02 9.69 59.89 9.15 59.63C8.58 59.35 8.13 58.9 7.78 58.3L7.78 62.54ZM37.94 59.8L36.45 59.8C36.02 59.8 35.67 59.67 35.4 59.4C35.13 59.13 34.99 58.78 34.99 58.35L34.99 52.53C34.99 51.84 34.79 51.35 34.37 51.03C33.96 50.72 33.5 50.56 32.98 50.56C32.47 50.56 32.02 50.72 31.62 51.03C31.22 51.35 31.02 51.84 31.02 52.53L31.02 59.8L28.03 59.8L28.03 53.13C28.03 51.19 28.53 49.89 29.55 49.24C30.56 48.58 31.67 48.22 32.9 48.17C34.15 48.17 35.31 48.49 36.36 49.15C37.41 49.81 37.94 51.13 37.94 53.13L37.94 59.8ZM24.3 59.33C23.71 59.65 23.07 59.84 22.4 59.91C21.73 59.98 21.14 60.02 20.63 60.02C19.6 60.02 18.71 59.74 17.94 59.18C17.17 58.63 16.79 57.71 16.79 56.42C16.79 55.22 17.13 54.37 17.83 53.86C18.53 53.34 19.42 53 20.5 52.83C20.64 52.83 20.82 52.81 21.01 52.76C21.21 52.72 21.44 52.69 21.7 52.66C22.95 52.49 23.58 52.12 23.58 51.55C23.58 51.12 23.36 50.84 22.92 50.71C22.47 50.58 22.07 50.52 21.7 50.52C21.3 50.52 20.94 50.58 20.63 50.69C20.32 50.8 20.09 51.02 19.95 51.33L17.08 51.33C17.2 50.45 17.6 49.72 18.28 49.15C19.05 48.49 20.15 48.17 21.57 48.17C23.16 48.17 24.36 48.44 25.16 48.98C25.98 49.55 26.4 50.35 26.4 51.37L26.4 55.27C26.4 56.41 26.19 57.3 25.78 57.94C25.37 58.58 24.87 59.05 24.3 59.33ZM59.02 59.33C58.42 59.65 57.79 59.84 57.12 59.91C56.45 59.98 55.86 60.02 55.34 60.02C54.32 60.02 53.42 59.74 52.65 59.18C51.88 58.63 51.5 57.71 51.5 56.42C51.5 55.22 51.85 54.37 52.54 53.86C53.24 53.34 54.13 53 55.21 52.83C55.36 52.83 55.53 52.81 55.73 52.76C55.93 52.72 56.15 52.69 56.41 52.66C57.66 52.49 58.29 52.12 58.29 51.55C58.29 51.12 58.07 50.84 57.63 50.71C57.19 50.58 56.78 50.52 56.41 50.52C56.01 50.52 55.66 50.58 55.34 50.69C55.03 50.8 54.8 51.02 54.66 51.33L51.8 51.33C51.91 50.45 52.31 49.72 52.99 49.15C53.76 48.49 54.86 48.17 56.28 48.17C57.88 48.17 59.07 48.44 59.87 48.98C60.7 49.55 61.11 50.35 61.11 51.37L61.11 55.27C61.11 56.41 60.9 57.3 60.49 57.94C60.08 58.58 59.59 59.05 59.02 59.33ZM12.65 54.16C12.65 53.04 12.44 52.19 12.01 51.59C11.59 50.99 10.97 50.69 10.18 50.69C9.41 50.69 8.81 50.99 8.38 51.59C7.98 52.13 7.78 52.99 7.78 54.16C7.78 55.24 8 56.05 8.42 56.59C8.85 57.19 9.46 57.49 10.26 57.49C11 57.49 11.59 57.19 12.01 56.59C12.44 55.99 12.65 55.18 12.65 54.16ZM42.26 54.03C42.26 55.17 42.48 56.04 42.9 56.64C43.33 57.24 43.94 57.54 44.74 57.54C45.51 57.54 46.11 57.24 46.54 56.64C46.93 56.04 47.13 55.17 47.13 54.03C47.13 53 46.92 52.19 46.49 51.59C46.04 51.02 45.42 50.73 44.66 50.73C43.91 50.73 43.33 51.03 42.9 51.63C42.48 52.2 42.26 53 42.26 54.03ZM23.62 54.07C23.22 54.27 22.67 54.45 21.95 54.63L20.97 54.84C20.46 54.98 20.09 55.17 19.86 55.4C19.66 55.71 19.56 56.02 19.56 56.34C19.56 56.77 19.69 57.11 19.95 57.36C20.2 57.59 20.57 57.71 21.06 57.71C21.85 57.71 22.48 57.48 22.94 57.02C23.39 56.57 23.62 55.94 23.62 55.14L23.62 54.07ZM58.33 54.07C57.93 54.27 57.38 54.45 56.67 54.63L55.68 54.84C55.17 54.98 54.8 55.17 54.57 55.4C54.37 55.71 54.27 56.02 54.27 56.34C54.27 56.77 54.4 57.11 54.66 57.36C54.92 57.59 55.29 57.71 55.77 57.71C56.57 57.71 57.19 57.48 57.65 57.02C58.11 56.57 58.33 55.94 58.33 55.14L58.33 54.07Z" fill="#231F20" fill-opacity="1.000000" fill-rule="evenodd"/>
</svg>
